<svg width="258" height="259" viewBox="0 0 258 259" fill="none" xmlns="http://www.w3.org/2000/svg">
<path d="M118.699 242.664C115.987 242.466 114.032 241.771 112.836 240.581C111.62 239.389 111.076 237.905 111.206 236.13C111.25 235.531 111.379 234.869 111.592 234.143C112.091 232.535 112.904 231.151 114.032 229.99C115.158 228.849 116.504 227.995 118.07 227.428C119.614 226.879 121.264 226.669 123.019 226.797C125.792 227 127.806 227.699 129.062 228.894C130.297 230.107 130.847 231.632 130.713 233.467C130.668 234.085 130.537 234.767 130.322 235.514C129.83 237.042 129.011 238.365 127.866 239.485C126.7 240.623 125.325 241.465 123.741 242.011C122.135 242.575 120.455 242.793 118.699 242.664ZM118.984 240.008C119.403 240.039 119.879 239.692 120.414 238.97C120.926 238.265 121.578 236.899 122.368 234.871C123.158 232.844 123.584 231.411 123.645 230.573C123.677 230.134 123.629 229.83 123.501 229.66C123.372 229.51 123.188 229.427 122.948 229.409C122.532 229.339 122.077 229.666 121.583 230.392C121.069 231.116 120.392 232.551 119.553 234.695C118.793 236.585 118.381 237.969 118.317 238.846C118.286 239.265 118.335 239.559 118.463 239.729C118.571 239.898 118.745 239.99 118.984 240.008Z" fill="url(#paint0_linear_217304_862)"/>
<path d="M99.0094 227.24C99.0658 227.171 99.1114 227.058 99.1462 226.902C99.1766 226.765 99.1713 226.651 99.1301 226.56C99.0694 226.465 98.9805 226.404 98.8634 226.378C98.6291 226.326 98.4122 226.38 98.2125 226.54C97.989 226.716 97.8479 226.797 97.7894 226.784C97.6918 226.762 97.6289 226.677 97.6008 226.527C97.5683 226.397 97.5716 226.244 97.6108 226.068C97.7174 225.498 98.0267 224.983 98.5389 224.523C99.0468 224.083 99.7205 223.772 100.56 223.59C101.376 223.424 102.311 223.458 103.365 223.692C104.653 223.979 105.613 224.501 106.244 225.256C106.87 226.031 107.083 226.918 106.88 227.918C106.719 228.64 106.363 229.411 105.812 230.231L103.262 234.089C103.108 234.321 103.013 234.515 102.979 234.671C102.922 234.925 102.966 235.14 103.112 235.315C103.233 235.506 103.411 235.628 103.645 235.68C104.016 235.763 104.436 235.672 104.905 235.408C105.349 235.158 105.774 234.679 106.178 233.97L106.165 234.028L109.334 228.495C109.444 228.274 109.519 228.075 109.558 227.9C109.615 227.646 109.612 227.43 109.549 227.252C109.482 227.094 109.376 226.927 109.23 226.751C109.124 226.584 109.053 226.445 109.016 226.334C108.975 226.243 108.989 226.134 109.058 226.006C109.212 225.774 109.449 225.632 109.768 225.58C110.087 225.528 110.549 225.569 111.154 225.704L117.83 227.191C118.338 227.304 118.691 227.465 118.891 227.673C119.086 227.901 119.114 228.143 118.975 228.399C118.845 228.616 118.594 228.775 118.223 228.877C117.896 228.968 117.61 229.099 117.367 229.27C117.124 229.442 116.882 229.746 116.641 230.184L108.935 243.805C108.838 243.967 108.776 244.107 108.75 244.224C108.702 244.439 108.721 244.628 108.808 244.791C108.875 244.949 108.981 245.116 109.126 245.292C109.287 245.492 109.403 245.661 109.474 245.8C109.526 245.934 109.501 246.093 109.399 246.275C109.182 246.698 108.48 246.951 107.294 247.035C106.107 247.119 104.908 247.026 103.698 246.757C102.566 246.504 101.784 246.105 101.353 245.558C100.902 245.007 100.759 244.36 100.924 243.618C101.02 243.189 101.182 242.784 101.41 242.405L104.139 237.604C103.156 238.43 102.201 238.944 101.275 239.148C100.329 239.347 99.3579 239.335 98.3623 239.114C97.1714 238.848 96.2953 238.274 95.7339 237.391C95.153 236.503 94.9908 235.484 95.2474 234.332C95.3822 233.727 95.6125 233.153 95.9381 232.611L99.0094 227.24Z" fill="url(#paint1_linear_217304_862)"/>
<path d="M80.3187 220.05C80.3846 219.99 80.4461 219.885 80.5033 219.736C80.5533 219.605 80.5646 219.491 80.5371 219.395C80.491 219.292 80.4119 219.219 80.2998 219.176C80.0756 219.09 79.8531 219.112 79.6322 219.242C79.3855 219.383 79.2341 219.443 79.1781 219.421C79.0847 219.386 79.035 219.292 79.0289 219.14C79.0158 219.006 79.0413 218.855 79.1056 218.687C79.2941 218.138 79.6752 217.674 80.2489 217.294C80.8154 216.932 81.5272 216.723 82.3844 216.665C83.2157 216.619 84.1357 216.789 85.1444 217.175C86.3773 217.646 87.2509 218.301 87.7651 219.14C88.2721 219.998 88.3528 220.907 88.0071 221.867C87.7427 222.558 87.2781 223.269 86.6132 224L83.5289 227.445C83.3426 227.652 83.2209 227.83 83.1637 227.98C83.0708 228.223 83.0834 228.442 83.2015 228.637C83.2938 228.843 83.4521 228.99 83.6762 229.075C83.9938 229.197 84.3743 229.182 84.8177 229.03C85.2611 228.878 85.7279 228.554 86.218 228.056L89.6775 223.63C89.7434 223.569 89.805 223.464 89.8621 223.315C89.9122 223.184 89.9234 223.071 89.896 222.975C89.8498 222.871 89.7707 222.798 89.6586 222.755C89.4345 222.67 89.2119 222.692 88.9911 222.821C88.7443 222.962 88.593 223.022 88.5369 223.001C88.4435 222.965 88.3938 222.871 88.3878 222.719C88.3746 222.585 88.4002 222.435 88.4645 222.267C88.653 221.718 89.0341 221.253 89.6077 220.873C90.1742 220.512 90.8861 220.302 91.7432 220.244C92.5745 220.198 93.4945 220.368 94.5033 220.754C95.7362 221.226 96.6097 221.881 97.1239 222.72C97.631 223.578 97.7116 224.486 97.3659 225.446C97.1016 226.137 96.637 226.848 95.9721 227.579L92.8877 231.025C92.7014 231.232 92.5797 231.41 92.5225 231.559C92.4297 231.802 92.4423 232.021 92.5604 232.216C92.6527 232.423 92.8109 232.569 93.0351 232.655C93.3526 232.776 93.7331 232.761 94.1765 232.61C94.6128 232.477 95.0573 232.154 95.5101 231.642L99.6529 226.353C99.8062 226.176 99.9186 225.994 99.99 225.807C100.076 225.583 100.101 225.379 100.064 225.193C100.021 225.027 99.9437 224.837 99.8327 224.623C99.7448 224.461 99.6907 224.323 99.6704 224.208C99.6501 224.093 99.6836 223.977 99.771 223.861C99.9386 223.647 100.184 223.537 100.507 223.532C100.83 223.527 101.291 223.639 101.888 223.868L108.277 226.311C108.763 226.497 109.08 226.704 109.228 226.932C109.388 227.186 109.39 227.433 109.234 227.673C109.073 227.868 108.802 227.989 108.42 228.036C108.083 228.078 107.781 228.166 107.516 228.3C107.251 228.435 106.967 228.701 106.665 229.099L101.074 236.243C101.001 236.322 100.932 236.446 100.868 236.614C100.789 236.819 100.775 236.996 100.825 237.144C100.857 237.285 100.934 237.475 101.057 237.714C101.187 237.935 101.267 238.116 101.299 238.257C101.331 238.397 101.283 238.55 101.156 238.716C100.879 239.102 100.148 239.251 98.9618 239.161C97.7684 239.09 96.5926 238.833 95.4345 238.39C94.5191 238.04 93.8964 237.513 93.5662 236.809C93.2174 236.097 93.2202 235.306 93.5747 234.435C92.4016 235.207 91.3161 235.638 90.3183 235.727C89.3018 235.809 88.2986 235.661 87.3085 235.282C86.2251 234.868 85.4685 234.215 85.039 233.322C84.5836 232.442 84.5114 231.482 84.8225 230.445C83.5334 231.408 82.3383 231.958 81.2372 232.093C80.129 232.247 79.0331 232.117 77.9497 231.703C76.8102 231.267 76.027 230.571 75.6002 229.616C75.1547 228.653 75.1427 227.621 75.5642 226.519C75.7857 225.94 76.097 225.406 76.4982 224.917L80.3187 220.05Z" fill="url(#paint2_linear_217304_862)"/>
<path d="M66.853 225.053C66.0856 224.622 65.6514 223.966 65.5503 223.084C65.422 222.209 65.6563 221.239 66.2534 220.176C66.7722 219.251 67.4958 218.35 68.4243 217.472C70.2736 215.689 72.4468 214.248 74.9439 213.15C77.4235 212.042 79.9107 211.431 82.4055 211.317C84.8829 211.194 87.0372 211.646 88.8685 212.674C89.7754 213.183 90.4722 213.78 90.9587 214.466C91.4278 215.142 91.6813 215.835 91.719 216.544C91.7742 217.263 91.6354 217.919 91.3026 218.512C91.1557 218.774 90.9506 219.037 90.6872 219.302C90.2562 219.702 89.7841 219.931 89.271 219.987C88.7579 220.043 88.2485 219.929 87.7427 219.645C86.9404 219.195 86.4381 218.557 86.2358 217.733C86.0258 216.881 86.1202 215.936 86.519 214.899C85.3734 214.325 84.0752 214.227 82.6244 214.605C83.4258 215.261 83.9222 215.93 84.1135 216.61C84.2776 217.299 84.1738 218.158 83.8022 219.188L81.2514 226.185C81.1178 226.545 81.069 226.816 81.1051 226.997C81.114 227.186 81.197 227.324 81.3539 227.412C81.476 227.48 81.6585 227.503 81.9015 227.478C82.127 227.444 82.2746 227.447 82.3443 227.486C82.4839 227.564 82.4704 227.752 82.304 228.048C82.167 228.293 81.9766 228.53 81.7328 228.76C80.8609 229.578 79.8068 230.087 78.5704 230.288C77.3243 230.506 76.1344 230.296 75.0007 229.66C73.8845 229.034 73.2507 228.242 73.0995 227.286C72.9307 226.32 73.1545 225.104 73.7709 223.638L76.2162 217.442C76.4086 216.976 76.3739 216.67 76.1123 216.523C75.7984 216.347 75.2755 216.421 74.5437 216.744C73.8021 217.085 72.9371 217.666 71.9486 218.487C72.2076 219.251 72.3053 220.017 72.2417 220.784C72.1782 221.551 71.9507 222.284 71.5591 222.981C71.2557 223.522 70.9119 223.971 70.5276 224.329C69.9268 224.909 69.3105 225.251 68.6787 225.355C68.0197 225.467 67.4111 225.366 66.853 225.053Z" fill="url(#paint3_linear_217304_862)"/>
<path d="M50.1838 220.369C48.49 219.061 47.4253 217.822 46.9897 216.651C46.526 215.485 46.5814 214.529 47.1559 213.785C47.6204 213.184 48.2343 212.913 48.9976 212.971C49.7328 213.034 50.504 213.376 51.3113 214C52.0553 214.574 52.4926 215.203 52.623 215.884C52.7534 216.566 52.6109 217.176 52.1953 217.715C51.9386 218.047 51.5668 218.316 51.0798 218.521C51.5547 218.888 52.0422 219.075 52.5421 219.082C53.0298 219.104 53.5747 218.906 54.1766 218.487C54.5405 218.212 54.8386 217.924 55.0708 217.623C55.3642 217.243 55.5331 216.893 55.5776 216.574C55.5941 216.258 55.4756 216.003 55.2224 215.807L53.8214 214.725C52.9982 214.09 52.7822 213.518 53.1734 213.012C53.2223 212.949 53.3115 212.866 53.4409 212.764C53.8048 212.489 54.2044 212.38 54.6396 212.438C55.059 212.484 55.5615 212.733 56.1473 213.186L56.8596 213.736L65.151 207.858C65.3451 207.704 65.4972 207.556 65.6072 207.414C65.7661 207.208 65.8549 207.011 65.8735 206.824C65.88 206.652 65.8547 206.455 65.7978 206.234C65.7726 206.038 65.7668 205.882 65.7804 205.766C65.7818 205.666 65.8411 205.573 65.9583 205.487C66.1964 205.342 66.4708 205.314 66.7816 205.402C67.0924 205.491 67.4931 205.724 67.9839 206.103L73.3977 210.284C73.8093 210.601 74.0612 210.897 74.1533 211.17C74.2333 211.459 74.156 211.69 73.9216 211.863C73.7116 212.004 73.417 212.042 73.0379 211.977C72.7027 211.92 72.3887 211.918 72.0959 211.969C71.8031 212.021 71.4547 212.194 71.0505 212.489L64.5046 217.137C64.2421 217.314 64.013 217.529 63.8175 217.782C63.573 218.098 63.4548 218.399 63.4628 218.683C63.4427 218.971 63.4817 219.329 63.5797 219.759C63.6438 220.036 63.6867 220.258 63.7083 220.427C63.7019 220.598 63.6437 220.756 63.5337 220.898C63.3173 221.211 63.0494 221.345 62.73 221.301C62.3947 221.244 61.9026 220.965 61.2536 220.464L60.6599 220.006C60.4652 220.487 60.215 220.926 59.9094 221.321C59.6038 221.717 59.2148 222.074 58.7423 222.391C57.8181 222.966 56.6514 223.152 55.2421 222.948C53.817 222.732 52.1309 221.872 50.1838 220.369Z" fill="url(#paint4_linear_217304_862)"/>
<path d="M45.5717 206.99C43.6838 205.031 42.6916 203.21 42.5951 201.525C42.4847 199.826 43.0702 198.358 44.3516 197.123C44.7836 196.706 45.3214 196.299 45.9652 195.9C47.4096 195.036 48.939 194.547 50.5536 194.435C52.1537 194.337 53.726 194.599 55.2705 195.222C56.7868 195.843 58.1557 196.788 59.3773 198.055C61.3068 200.056 62.3406 201.921 62.4788 203.649C62.5887 205.377 61.9813 206.879 60.6567 208.156C60.2103 208.587 59.6581 209.008 58.9999 209.42C57.6131 210.229 56.1199 210.669 54.5203 210.739C52.8924 210.808 51.3065 210.517 49.7625 209.867C48.1902 209.216 46.7932 208.257 45.5717 206.99ZM47.5563 205.201C47.8478 205.503 48.4337 205.564 49.314 205.382C50.166 205.199 51.5628 204.617 53.5044 203.634C55.446 202.651 56.7192 201.868 57.3239 201.285C57.6406 200.979 57.808 200.721 57.826 200.509C57.8297 200.311 57.7482 200.126 57.5816 199.953C57.3189 199.623 56.7613 199.563 55.9087 199.774C55.0423 199.97 53.5813 200.587 51.5255 201.624C49.6986 202.525 48.4683 203.28 47.8348 203.891C47.5325 204.182 47.3723 204.434 47.3543 204.646C47.3224 204.843 47.3897 205.028 47.5563 205.201Z" fill="url(#paint5_linear_217304_862)"/>
<path d="M35.136 194.047C33.5534 191.835 32.837 189.888 32.9868 188.207C33.125 186.51 33.9179 185.143 35.3656 184.107C35.8536 183.758 36.445 183.434 37.1399 183.133C38.6948 182.488 40.2791 182.227 41.8927 182.352C43.4901 182.488 45.0075 182.976 46.4449 183.816C47.8545 184.652 49.0713 185.786 50.0954 187.217C51.7129 189.478 52.4643 191.474 52.3493 193.204C52.2065 194.929 51.3869 196.327 49.8904 197.397C49.3862 197.758 48.7785 198.095 48.0673 198.407C46.5774 199.005 45.0361 199.223 43.4434 199.059C41.8228 198.89 40.2961 198.372 38.8632 197.503C37.4025 196.63 36.1601 195.478 35.136 194.047ZM37.3599 192.566C37.6043 192.908 38.1751 193.053 39.0725 193.001C39.942 192.945 41.4088 192.571 43.4728 191.882C45.5368 191.192 46.9104 190.603 47.5936 190.114C47.9515 189.858 48.1547 189.626 48.2034 189.419C48.2358 189.224 48.1822 189.029 48.0425 188.834C47.8307 188.469 47.2877 188.329 46.4136 188.413C45.5278 188.481 43.9925 188.879 41.8076 189.606C39.869 190.23 38.5419 190.799 37.8262 191.311C37.4846 191.555 37.2895 191.781 37.2409 191.988C37.1806 192.178 37.2202 192.371 37.3599 192.566Z" fill="url(#paint6_linear_217304_862)"/>
<path d="M34.6019 169.839C34.7625 169.801 34.8695 169.769 34.9228 169.741C35.0473 169.677 35.1269 169.592 35.1614 169.484C35.196 169.376 35.1859 169.269 35.131 169.162C35.0213 168.949 34.8409 168.817 34.5898 168.766C34.3119 168.706 34.1592 168.65 34.1318 168.596C34.086 168.508 34.1117 168.404 34.2088 168.287C34.3059 168.17 34.4344 168.07 34.5945 167.988C35.0656 167.723 35.6508 167.658 36.35 167.793C37.0401 167.911 37.7098 168.207 38.3592 168.683C39.0085 169.159 39.5253 169.77 39.9094 170.517C40.3666 171.407 40.5954 172.267 40.5958 173.099C40.5962 173.931 40.3848 174.613 39.9614 175.146C40.8309 175.306 41.5768 175.619 42.1992 176.087C42.8217 176.554 43.3112 177.134 43.6679 177.828C44.0886 178.646 44.2772 179.516 44.2339 180.438C44.1815 181.342 43.8915 182.199 43.3639 183.01C42.8094 183.812 42.0519 184.461 41.0914 184.954C39.4728 185.787 37.7966 186.266 36.0627 186.393C34.3019 186.511 32.7022 186.243 31.2637 185.588C29.8074 184.943 28.718 183.917 27.9955 182.512C27.6023 181.747 27.3575 181.052 27.261 180.427C27.1554 179.784 27.1661 179.149 27.2932 178.522L23.8386 179.151C23.6511 179.18 23.504 179.222 23.3973 179.277C23.2016 179.377 23.069 179.513 22.9993 179.684C22.9206 179.837 22.8601 180.025 22.8179 180.249C22.767 180.5 22.7111 180.698 22.6501 180.841C22.58 180.967 22.4422 181.049 22.2369 181.088C21.773 181.191 21.1292 180.814 20.3055 179.955C19.4819 179.097 18.7866 178.116 18.2196 177.014C17.6892 175.982 17.4962 175.125 17.6406 174.444C17.7759 173.745 18.1814 173.221 18.8573 172.874C19.2487 172.673 19.6631 172.538 20.1006 172.471L34.6019 169.839ZM29.3955 178.149C29.2928 178.562 29.3284 178.937 29.5021 179.275C29.7673 179.791 30.4104 180.101 31.4313 180.206C32.4521 180.311 33.5828 180.235 34.8233 179.98C36.0637 179.725 37.1152 179.364 37.9776 178.898C38.9559 178.395 39.2804 177.823 38.9512 177.183C38.8323 176.952 38.6428 176.802 38.3826 176.733C38.1046 176.674 37.7156 176.683 37.2156 176.76L29.3955 178.149Z" fill="url(#paint7_linear_217304_862)"/>
<path d="M26.5137 148.505C26.3684 147.718 26.5122 147.01 26.9451 146.381C27.3744 145.732 27.9726 145.337 28.7396 145.195C29.2706 145.097 29.8191 145.149 30.3849 145.349C30.9471 145.53 31.4426 145.845 31.8714 146.295C32.2769 146.728 32.5378 147.26 32.654 147.889C32.7957 148.656 32.6501 149.354 32.2171 149.983C31.7842 150.613 31.186 151.008 30.4227 151.169C29.8916 151.267 29.345 151.226 28.7828 151.045C28.2206 150.864 27.7368 150.557 27.3313 150.123C26.9025 149.674 26.6299 149.134 26.5137 148.505Z" fill="url(#paint8_linear_217304_862)"/>
<path d="M9.82446 111.534C9.95133 110.381 10.263 109.561 10.7594 109.072C11.258 108.563 11.885 108.351 12.6405 108.434C13.0778 108.482 13.4976 108.599 13.8998 108.784L28.5928 115.139C28.8248 115.225 29.0303 115.278 29.2092 115.297C29.4677 115.326 29.6819 115.299 29.8518 115.217C30.0019 115.133 30.1564 115.009 30.3153 114.845C30.4697 114.722 30.5999 114.635 30.7059 114.587C30.792 114.536 30.9024 114.538 31.0372 114.593C31.2847 114.721 31.4517 114.94 31.5382 115.252C31.6246 115.563 31.634 116.027 31.5662 116.643L30.8181 123.442C30.7612 123.959 30.6401 124.328 30.4548 124.549C30.2496 124.768 30.0123 124.822 29.7427 124.712C29.5129 124.606 29.3271 124.375 29.1854 124.017C29.0592 123.701 28.8976 123.432 28.7008 123.209C28.504 122.986 28.1747 122.779 27.7129 122.587L13.3315 116.417C13.1591 116.338 13.0133 116.292 12.894 116.279C12.6753 116.255 12.4898 116.295 12.3375 116.399C12.1875 116.483 12.033 116.606 11.8741 116.77C11.6932 116.951 11.5377 117.085 11.4074 117.171C11.2794 117.238 11.1193 117.23 10.927 117.149C10.4829 116.979 10.1542 116.309 9.94094 115.139C9.72767 113.969 9.68884 112.767 9.82446 111.534Z" fill="url(#paint9_linear_217304_862)"/>
<path d="M19.0523 98.7167C19.7403 96.0851 20.7783 94.2893 22.1663 93.3291C23.5593 92.3496 25.1169 92.085 26.839 92.5352C27.4195 92.6869 28.0475 92.9338 28.723 93.2758C30.2135 94.0582 31.4271 95.1094 32.3638 96.4292C33.281 97.7439 33.8764 99.2226 34.1498 100.865C34.409 102.483 34.3159 104.144 33.8708 105.847C33.1676 108.536 32.1145 110.39 30.7113 111.408C29.2939 112.402 27.695 112.666 25.9149 112.201C25.315 112.044 24.6677 111.792 23.9729 111.445C22.5597 110.683 21.4067 109.637 20.5138 108.308C19.6067 106.955 19.0286 105.45 18.7796 103.793C18.5162 102.111 18.6072 100.419 19.0523 98.7167ZM21.6128 99.4791C21.5065 99.8854 21.7603 100.417 22.3742 101.074C22.9738 101.706 24.1989 102.594 26.0493 103.74C27.8998 104.885 29.2314 105.564 30.0441 105.776C30.4698 105.888 30.7777 105.896 30.968 105.801C31.1388 105.701 31.2546 105.535 31.3153 105.303C31.4602 104.906 31.2207 104.399 30.5967 103.781C29.9778 103.144 28.6901 102.218 26.7336 101.004C25.0135 99.9134 23.7277 99.2568 22.8764 99.0342C22.47 98.928 22.1717 98.9224 21.9815 99.0173C21.7964 99.093 21.6735 99.2469 21.6128 99.4791Z" fill="url(#paint10_linear_217304_862)"/>
<path d="M24.3233 83.8675C25.2229 81.7507 26.3383 80.2255 27.6695 79.2917C28.9823 78.3502 30.4394 78.2197 32.0408 78.9002C32.6482 79.1583 33.2916 79.5621 33.9708 80.1115L37.3 82.8627C37.3658 82.9124 37.4539 82.9607 37.5643 83.0076C37.8589 83.1328 38.057 83.0757 38.1586 82.8364C38.2525 82.6156 38.2387 82.3924 38.1172 82.1669C37.9851 81.9152 37.9308 81.7617 37.9543 81.7065C37.9934 81.6145 38.0891 81.5682 38.2414 81.5678C38.4016 81.5489 38.5645 81.5747 38.7301 81.6451C39.2349 81.8378 39.659 82.2462 40.0023 82.8702C40.3534 83.4758 40.5539 84.1803 40.6036 84.9837C40.6533 85.7872 40.51 86.5846 40.1737 87.3761C39.7669 88.3333 39.244 89.0781 38.6048 89.6105C37.9657 90.143 37.2508 90.3933 36.4602 90.3616C36.8882 91.1954 37.1259 92.0679 37.1734 92.979C37.2024 93.8823 37.0331 94.7665 36.6654 95.6316C36.2509 96.6072 35.7187 97.3481 35.069 97.8543C34.4008 98.3527 33.7019 98.6424 32.972 98.7234C32.2316 98.7782 31.5301 98.6648 30.8675 98.3832C30.573 98.258 30.2994 98.1092 30.0467 97.9366C28.9018 97.1024 28.2145 96.0606 27.9848 94.8113C27.763 93.5435 27.9415 92.2286 28.5203 90.8665C29.1696 89.3387 30.0464 87.9402 31.1507 86.671L29.6217 85.2064C28.9503 84.6386 28.403 84.2647 27.9796 84.0848C27.53 83.9155 27.1361 83.9219 26.7979 84.1042C26.4597 84.2864 26.1693 84.6628 25.9268 85.2335C26.2683 85.2482 26.5955 85.322 26.9084 85.455C27.5894 85.7444 28.069 86.2524 28.3469 86.979C28.6249 87.7056 28.5605 88.5475 28.1538 89.5046C27.7705 90.4066 27.276 91.0331 26.6705 91.3842C26.0543 91.7091 25.4517 91.7464 24.8627 91.4961C23.9424 91.105 23.3975 90.265 23.2281 88.9761C23.0587 87.6872 23.4238 85.9843 24.3233 83.8675ZM32.0322 88.9688C31.8132 89.4842 31.8358 89.9936 32.0999 90.4971C32.3535 90.9742 32.7104 91.3106 33.1706 91.5062C33.4651 91.6313 33.7317 91.6686 33.9706 91.6179C34.2172 91.5489 34.3953 91.3855 34.5048 91.1278C34.6065 90.8886 34.624 90.5917 34.5572 90.2374C34.4799 89.8569 34.2753 89.52 33.9435 89.2269L32.5609 87.9549C32.3727 88.2443 32.1965 88.5823 32.0322 88.9688Z" fill="url(#paint11_linear_217304_862)"/>
<path d="M45.0493 69.9996C45.165 70.1171 45.2485 70.1914 45.2997 70.2227C45.4192 70.2956 45.5339 70.3188 45.6439 70.2922C45.7538 70.2656 45.8401 70.201 45.9026 70.0986C46.0276 69.8938 46.0465 69.6709 45.9591 69.4302C45.8651 69.1619 45.8337 69.0022 45.8649 68.951C45.917 68.8656 46.0185 68.8338 46.1692 68.8555C46.32 68.8772 46.4722 68.935 46.6258 69.0287C47.0972 69.293 47.4573 69.7587 47.7061 70.4261C47.9653 71.0763 48.061 71.8025 47.9932 72.6046C47.9254 73.4067 47.6727 74.1663 47.2352 74.8833C46.7142 75.7369 46.0988 76.3806 45.389 76.8143C44.6791 77.248 43.9866 77.4228 43.3115 77.3388C43.6277 78.1644 43.7486 78.9646 43.6742 79.7392C43.5997 80.5138 43.3594 81.234 42.953 81.8998C42.4738 82.6852 41.8294 83.2994 41.02 83.7427C40.221 84.1688 39.338 84.368 38.3709 84.3401C37.3972 84.2848 36.4494 83.9758 35.5275 83.4132C33.974 82.4651 32.6915 81.284 31.68 79.8701C30.6618 78.4286 30.0574 76.9234 29.8669 75.3545C29.6593 73.7751 29.967 72.311 30.7901 70.9623C31.2381 70.2283 31.7037 69.6572 32.187 69.2493C32.6807 68.8242 33.2285 68.5025 33.8304 68.2841L31.4937 65.663C31.3713 65.5181 31.2589 65.4143 31.1565 65.3518C30.9687 65.2372 30.7838 65.1946 30.6018 65.2241C30.4302 65.2366 30.2377 65.2831 30.0245 65.3639C29.7837 65.4512 29.5861 65.5063 29.4315 65.5292C29.2874 65.5349 29.1456 65.4601 29.0062 65.3047C28.676 64.9627 28.6628 64.2165 28.9664 63.0663C29.2701 61.9161 29.7449 60.8118 30.3909 59.7533C30.9952 58.7631 31.6257 58.1522 32.2826 57.9205C32.9499 57.6717 33.608 57.7452 34.2567 58.1411C34.6323 58.3703 34.9629 58.6541 35.2484 58.9924L45.0493 69.9996ZM35.2436 69.8846C34.8378 70.0118 34.536 70.2377 34.3381 70.562C34.0359 71.0571 34.106 71.7677 34.5484 72.6937C34.9907 73.6197 35.6441 74.5456 36.5083 75.4714C37.3726 76.3971 38.2282 77.1068 39.0751 77.6002C40.0141 78.1732 40.6711 78.1525 41.0462 77.5379C41.1816 77.3159 41.2109 77.0761 41.1339 76.8182C41.0399 76.55 40.8297 76.2225 40.5033 75.8359L35.2436 69.8846Z" fill="url(#paint12_linear_217304_862)"/>
<path d="M43.1002 54.1607C43.8422 53.2691 44.5551 52.7565 45.2387 52.6229C45.9223 52.4893 46.5562 52.6655 47.1404 53.1517C47.494 53.4459 47.7874 53.7812 48.0207 54.1575L53.1499 62.0168C53.296 62.2164 53.4383 62.3738 53.5766 62.489C53.7765 62.6553 53.9699 62.7512 54.1568 62.7767C54.3284 62.7894 54.5256 62.7713 54.7483 62.7225C54.9455 62.7044 55.1017 62.7043 55.2169 62.7222C55.3168 62.7272 55.4077 62.7899 55.4898 62.9102C55.6256 63.1534 55.6438 63.4287 55.5441 63.736C55.4444 64.0434 55.1963 64.4353 54.7997 64.9119L50.4243 70.1694C50.0917 70.5691 49.7871 70.8101 49.5106 70.8922C49.2188 70.9615 48.9908 70.8759 48.8267 70.6353C48.6934 70.4203 48.6664 70.1245 48.7455 69.748C48.8144 69.4151 48.8283 69.1014 48.7871 68.8069C48.746 68.5125 48.5857 68.1579 48.3063 67.7433L43.3116 60.1911C43.2117 60.0299 43.1156 59.9109 43.0233 59.8341C42.8542 59.6934 42.6916 59.6231 42.5354 59.6232C42.3638 59.6105 42.1602 59.6362 41.9247 59.7004C41.6738 59.7518 41.4766 59.7698 41.3332 59.7546C41.1898 59.7393 41.0604 59.6446 40.945 59.4706C40.6682 59.0841 40.7638 58.344 41.2317 57.2502C41.6842 56.1437 42.307 55.1139 43.1002 54.1607ZM39.2898 48.3747C39.7888 47.7752 40.4044 47.4419 41.1367 47.3748C41.8537 47.2949 42.4966 47.4917 43.0654 47.9651C43.4651 48.2977 43.7675 48.7315 43.9727 49.2666C44.1907 49.7863 44.2628 50.3406 44.1889 50.9296C44.1125 51.4905 43.8824 52.0015 43.4986 52.4627C43.0124 53.0469 42.4109 53.3789 41.6939 53.4588C40.9744 53.5104 40.3161 53.3009 39.7192 52.8301C39.3348 52.5103 39.0414 52.0969 38.8387 51.59C38.6207 51.0703 38.5422 50.5237 38.6033 49.95C38.6644 49.3764 38.8932 48.8513 39.2898 48.3747Z" fill="url(#paint13_linear_217304_862)"/>
<path d="M66.4466 47.929C66.4702 48.0153 66.5354 48.118 66.6421 48.2371C66.7356 48.3414 66.8313 48.4033 66.9294 48.4229C67.0423 48.4291 67.1435 48.3921 67.2329 48.312C67.4116 48.1519 67.4939 47.9439 67.4796 47.6882C67.4668 47.4042 67.4828 47.2422 67.5275 47.2022C67.6019 47.1355 67.7082 47.1342 67.8463 47.1985C67.9711 47.2478 68.0936 47.3395 68.2137 47.4735C68.6156 47.8922 68.8545 48.4435 68.9303 49.1275C68.9927 49.7966 68.8536 50.5254 68.5129 51.3141C68.1738 52.0745 67.602 52.815 66.7977 53.5357C65.8146 54.4166 64.8324 54.8938 63.851 54.9675C62.8564 55.0262 62.0113 54.6824 61.3157 53.9361C60.8219 53.385 60.4021 52.6467 60.0563 51.7213L58.4023 47.4028C58.3033 47.1424 58.2004 46.9526 58.0936 46.8335C57.9201 46.6398 57.7196 46.5509 57.4921 46.5668C57.2662 46.5544 57.0639 46.6283 56.8851 46.7884C56.5574 47.0821 56.3848 47.5187 56.3671 48.0985C56.3361 48.6633 56.4538 49.2292 56.7201 49.7962L59.4189 55.5954C59.5061 55.8126 59.6164 55.9957 59.7499 56.1447C59.9101 56.3234 60.0808 56.439 60.262 56.4915C60.4299 56.529 60.6343 56.5473 60.8751 56.5463C61.0595 56.5423 61.2073 56.5575 61.3188 56.5919C61.4302 56.6263 61.5177 56.709 61.5813 56.84C61.6953 57.087 61.6805 57.3553 61.5372 57.6449C61.3938 57.9345 61.0838 58.2928 60.6072 58.7199L55.5129 63.2843C55.1256 63.6313 54.7967 63.8187 54.5261 63.8463C54.2272 63.8724 54.0067 63.7612 53.8645 63.5126C53.764 63.2805 53.7802 62.9839 53.9133 62.623C54.03 62.3036 54.0894 61.9953 54.0915 61.698C54.0937 61.4007 53.9867 61.0265 53.7707 60.5756L49.9736 52.3367C49.9366 52.2355 49.8581 52.1179 49.738 51.9839C49.5912 51.82 49.4405 51.7268 49.2859 51.7041C49.1463 51.6681 48.9419 51.6499 48.6728 51.6493C48.4171 51.6636 48.2194 51.6527 48.0798 51.6167C47.9401 51.5807 47.8259 51.4683 47.7371 51.2793C47.5195 50.8566 47.7218 50.1383 48.3439 49.1243C48.9527 48.0954 49.7189 47.1673 50.6424 46.3398C51.3872 45.6725 52.1624 45.3538 52.9681 45.3839C53.7604 45.399 54.4612 45.7915 55.0705 46.5614C54.8938 45.1354 55.0012 43.9516 55.3928 43.0099C55.771 42.0534 56.3623 41.2148 57.1666 40.4941C58.0753 39.68 59.052 39.3015 60.097 39.3589C61.1568 39.4028 62.0805 39.8642 62.8679 40.7431C63.2816 41.2048 63.6142 41.7259 63.8657 42.3062L66.4466 47.929Z" fill="url(#paint14_linear_217304_862)"/>
<path d="M70.4661 25.4039C70.9999 25.0508 71.5942 24.8254 72.2491 24.7279C72.9097 24.6026 73.5308 24.6353 74.1126 24.826C74.7 24.9889 75.1427 25.2956 75.4406 25.7459C76.0917 26.73 75.7501 27.6635 74.4157 28.5463C74.032 28.8002 73.7152 28.9738 73.4653 29.0672C73.221 29.1329 72.9129 29.1928 72.5411 29.247C72.5683 29.3969 72.6536 29.5802 72.7971 29.797C72.9736 30.0639 73.225 30.3533 73.5512 30.665C73.8941 30.9658 74.237 31.2305 74.5801 31.4591C75.2725 31.7444 75.856 32.2457 76.3305 32.963C76.5402 33.2799 76.7523 33.6911 76.9668 34.1967C77.3405 35.1964 77.4227 36.2812 77.2133 37.4509C77.0206 38.6095 76.5285 39.7505 75.7368 40.8737C74.9509 41.9693 73.924 42.9364 72.6563 43.7751C71.6889 44.4151 70.7357 44.9498 69.7967 45.3792C69.69 45.7616 69.7415 46.1112 69.9511 46.4281C70.0946 46.645 70.3161 46.7622 70.6156 46.7799C70.904 46.781 71.2817 46.627 71.7488 46.318L75.5018 43.835C76.7861 42.9853 77.9359 42.5484 78.9511 42.5242C79.9552 42.4834 80.7277 42.8716 81.2684 43.6889C81.4671 43.9891 81.6212 44.3308 81.7308 44.714C81.961 45.4969 81.8996 46.4009 81.5465 47.4258C81.2211 48.4564 80.5321 49.5717 79.4795 50.7717C78.4269 51.9717 76.9832 53.1787 75.1484 54.3926C73.5138 55.474 72.0355 56.2482 70.7137 56.715C69.3919 57.1819 68.2902 57.3472 67.4087 57.2109C66.5216 57.1024 65.8793 56.7479 65.4821 56.1475C65.3938 56.014 65.2947 55.7918 65.1849 55.4808C65.015 54.8977 65.0976 54.2795 65.4327 53.6262C65.7401 52.9671 66.4612 52.1903 67.5959 51.2957C66.9418 51.1769 66.4382 50.8506 66.085 50.3169C65.9637 50.1334 65.8618 49.925 65.7794 49.6917C65.4724 48.6478 65.8315 47.487 66.8567 46.2092C65.1532 46.353 63.8656 45.766 62.9938 44.4483C62.751 44.0814 62.5473 43.6646 62.3825 43.1981C62.0088 42.1983 61.9322 41.1219 62.1526 39.9689C62.3619 38.7992 62.8624 37.6527 63.6541 36.5295C64.4457 35.4062 65.4753 34.4252 66.743 33.5865C68.7279 32.2733 70.4586 31.5001 71.9349 31.2667C71.4309 31.0486 70.9603 30.7724 70.5233 30.438C70.0919 30.076 69.7548 29.7114 69.5121 29.3445C69.0927 28.7107 68.9342 28.0361 69.0366 27.3209C69.1556 26.5947 69.6321 25.9557 70.4661 25.4039ZM70.9131 37.878C70.6172 36.8507 70.3203 36.1119 70.0223 35.6616C69.6471 35.0945 69.2177 34.9709 68.7339 35.2909C68.3169 35.5668 68.0879 36.0181 68.0469 36.6448C68.0115 37.2437 68.183 38.1735 68.5613 39.434C68.8682 40.4779 69.1707 41.225 69.4686 41.6754C69.8328 42.2258 70.2484 42.3466 70.7155 42.0376C71.1325 41.7617 71.3615 41.3104 71.4025 40.6837C71.4435 40.0571 71.2804 39.1218 70.9131 37.878ZM71.7443 49.954C71.2773 50.263 70.8354 50.5194 70.4186 50.7232C70.384 51.1058 70.5046 51.5056 70.7805 51.9226C71.0731 52.3286 71.4385 52.5185 71.8768 52.4923C72.3318 52.4551 72.9012 52.2102 73.5851 51.7578C74.4191 51.206 75.0119 50.634 75.3634 50.0417C75.7317 49.4383 75.7613 48.9032 75.4523 48.4361C75.3199 48.236 75.14 48.1272 74.9126 48.1097C74.6852 48.0923 74.4298 48.1773 74.1462 48.365L71.7443 49.954Z" fill="url(#paint15_linear_217304_862)"/>
<path d="M98.4265 29.6894C99.1926 29.4589 99.912 29.5245 100.585 29.886C101.277 30.2418 101.735 30.7931 101.96 31.54C102.115 32.0571 102.124 32.6079 101.987 33.1923C101.868 33.7709 101.609 34.2979 101.209 34.7733C100.823 35.2238 100.323 35.5412 99.71 35.7256C98.9631 35.9503 98.2532 35.8819 97.5806 35.5204C96.9079 35.1588 96.4496 34.6075 96.2057 33.8663C96.0502 33.3492 96.0315 32.8014 96.1499 32.2227C96.2682 31.6441 96.5206 31.1296 96.9073 30.6791C97.3072 30.2037 97.8137 29.8738 98.4265 29.6894Z" fill="url(#paint16_linear_217304_862)"/>
<path d="M130.539 15.3569C133.259 15.3569 135.259 15.9069 136.539 17.0069C137.839 18.1069 138.489 19.5469 138.489 21.3269C138.489 21.9269 138.409 22.5969 138.249 23.3369C137.869 24.9769 137.159 26.4169 136.119 27.6569C135.079 28.8769 133.799 29.8269 132.279 30.5069C130.779 31.1669 129.149 31.4969 127.389 31.4969C124.609 31.4969 122.549 30.9469 121.209 29.8469C119.889 28.7269 119.229 27.2469 119.229 25.4069C119.229 24.7869 119.309 24.0969 119.469 23.3369C119.849 21.7769 120.569 20.3969 121.629 19.1969C122.709 17.9769 124.019 17.0369 125.559 16.3769C127.119 15.6969 128.779 15.3569 130.539 15.3569ZM130.449 18.0269C130.029 18.0269 129.579 18.4069 129.099 19.1669C128.639 19.9069 128.089 21.3169 127.449 23.3969C126.809 25.4769 126.489 26.9369 126.489 27.7769C126.489 28.2169 126.559 28.5169 126.699 28.6769C126.839 28.8169 127.029 28.8869 127.269 28.8869C127.689 28.9269 128.119 28.5669 128.559 27.8069C129.019 27.0469 129.589 25.5669 130.269 23.3669C130.889 21.4269 131.199 20.0169 131.199 19.1369C131.199 18.7169 131.129 18.4269 130.989 18.2669C130.869 18.1069 130.689 18.0269 130.449 18.0269Z" fill="url(#paint17_linear_217304_862)"/>
<path d="M151.303 29.3024C151.252 29.3757 151.214 29.4915 151.191 29.6498C151.171 29.7884 151.184 29.9015 151.232 29.9894C151.3 30.0802 151.393 30.1344 151.511 30.1518C151.749 30.1868 151.961 30.117 152.149 29.9424C152.359 29.7509 152.494 29.6596 152.553 29.6683C152.652 29.6829 152.721 29.7638 152.76 29.911C152.802 30.0385 152.81 30.1913 152.783 30.3693C152.719 30.9461 152.448 31.4823 151.97 31.9781C151.496 32.4541 150.847 32.8134 150.023 33.056C149.221 33.2817 148.286 33.316 147.218 33.1587C145.912 32.9665 144.917 32.5168 144.232 31.8097C143.551 31.0827 143.275 30.2132 143.403 29.2012C143.511 28.4691 143.81 27.6741 144.3 26.8163L146.562 22.7826C146.698 22.5399 146.778 22.3395 146.802 22.1812C146.84 21.9239 146.78 21.713 146.622 21.5482C146.487 21.3667 146.301 21.2584 146.063 21.2234C145.687 21.1681 145.275 21.2894 144.827 21.5873C144.402 21.8684 144.014 22.3773 143.662 23.114L143.671 23.0547L140.915 28.8046C140.82 29.0333 140.76 29.2367 140.734 29.4148C140.696 29.672 140.715 29.887 140.791 30.0599C140.869 30.213 140.987 30.3718 141.145 30.5366C141.263 30.6955 141.345 30.8287 141.389 30.9364C141.437 31.0243 141.431 31.1346 141.371 31.2673C141.234 31.5099 141.009 31.6688 140.694 31.7438C140.38 31.8189 139.916 31.8112 139.303 31.721L132.536 30.7251C132.021 30.6493 131.657 30.5149 131.443 30.3216C131.232 30.1086 131.186 29.8694 131.306 29.604C131.42 29.3782 131.658 29.2011 132.021 29.0725C132.341 28.9579 132.616 28.8063 132.846 28.6178C133.076 28.4292 133.295 28.1077 133.503 27.6532L140.194 13.5067C140.28 13.3373 140.331 13.1933 140.349 13.0746C140.381 12.8569 140.348 12.6701 140.249 12.5141C140.171 12.3611 140.053 12.2022 139.895 12.0374C139.721 11.85 139.593 11.6897 139.511 11.5564C139.449 11.426 139.463 11.2663 139.551 11.0771C139.737 10.6395 140.418 10.3355 141.596 10.1651C142.773 9.99473 143.975 9.99981 145.202 10.1804C146.35 10.3492 147.159 10.6907 147.629 11.2046C148.119 11.7214 148.308 12.3558 148.198 13.1077C148.134 13.543 148.002 13.9583 147.802 14.3534L145.431 19.3413C146.351 18.4457 147.265 17.8627 148.175 17.5921C149.103 17.3245 150.072 17.265 151.082 17.4135C152.289 17.5911 153.204 18.0999 153.829 18.9397C154.473 19.7825 154.709 20.7876 154.537 21.955C154.447 22.5684 154.259 23.1574 153.974 23.7218L151.303 29.3024Z" fill="url(#paint18_linear_217304_862)"/>
<path d="M170.468 35.1087C170.407 35.1738 170.353 35.283 170.307 35.4362C170.267 35.5702 170.264 35.6842 170.298 35.7781C170.352 35.8778 170.436 35.9449 170.551 35.9795C170.781 36.0486 171.001 36.0105 171.212 35.865C171.448 35.7062 171.594 35.6355 171.652 35.6527C171.748 35.6815 171.804 35.7716 171.821 35.923C171.844 36.0552 171.83 36.2075 171.778 36.3798C171.63 36.941 171.284 37.4321 170.739 37.8531C170.201 38.255 169.506 38.5159 168.655 38.6359C167.83 38.7426 166.9 38.6403 165.866 38.3292C164.601 37.9489 163.682 37.3591 163.108 36.5598C162.54 35.7414 162.393 34.8409 162.668 33.8584C162.881 33.1498 163.293 32.4068 163.902 31.6295L166.727 27.9681C166.898 27.7479 167.006 27.5612 167.052 27.408C167.127 27.159 167.099 26.9416 166.967 26.7556C166.859 26.5563 166.691 26.4221 166.461 26.353C166.136 26.255 165.757 26.2978 165.326 26.4814C164.895 26.6649 164.453 27.0228 164 27.555L160.873 32.222C160.812 32.2871 160.758 32.3962 160.712 32.5494C160.672 32.6835 160.669 32.7975 160.703 32.8914C160.757 32.991 160.841 33.0581 160.956 33.0927C161.186 33.1618 161.406 33.1237 161.617 32.9783C161.853 32.8195 161.999 32.7487 162.057 32.766C162.153 32.7948 162.209 32.8849 162.226 33.0362C162.249 33.1684 162.234 33.3207 162.183 33.4931C162.035 34.0542 161.689 34.5453 161.144 34.9664C160.606 35.3682 159.911 35.6292 159.06 35.7492C158.235 35.8558 157.305 35.7535 156.27 35.4424C155.006 35.0621 154.087 34.4723 153.513 33.673C152.945 32.8546 152.798 31.9541 153.073 30.9716C153.286 30.263 153.697 29.5201 154.307 28.7428L157.132 25.0813C157.303 24.8611 157.411 24.6745 157.457 24.5212C157.532 24.2723 157.503 24.0548 157.371 23.8689C157.264 23.6696 157.096 23.5353 156.866 23.4662C156.54 23.3683 156.162 23.4111 155.731 23.5946C155.305 23.759 154.886 24.1131 154.471 24.6568L150.726 30.2342C150.586 30.4218 150.487 30.6114 150.429 30.8029C150.36 31.0327 150.35 31.2386 150.4 31.4207C150.456 31.5835 150.546 31.7675 150.673 31.9726C150.772 32.1278 150.836 32.262 150.865 32.375C150.894 32.4881 150.869 32.6059 150.79 32.7284C150.638 32.9543 150.402 33.0815 150.08 33.11C149.758 33.1385 149.291 33.0606 148.678 32.8762L142.128 30.9056C141.63 30.7558 141.299 30.5726 141.134 30.356C140.956 30.1145 140.936 29.8683 141.074 29.6174C141.22 29.4107 141.482 29.2701 141.859 29.1956C142.192 29.1289 142.487 29.0189 142.741 28.8659C142.996 28.7128 143.26 28.4267 143.532 28.0073L148.587 20.4742C148.654 20.3899 148.714 20.2616 148.765 20.0893C148.829 19.8786 148.83 19.7014 148.769 19.5577C148.727 19.4197 148.636 19.2357 148.496 19.0057C148.351 18.7949 148.257 18.6205 148.215 18.4826C148.173 18.3446 148.209 18.1885 148.324 18.0143C148.572 17.6083 149.29 17.4068 150.48 17.4096C151.675 17.3933 152.867 17.5638 154.054 17.9211C154.993 18.2034 155.652 18.6838 156.033 19.3622C156.433 20.0464 156.488 20.8357 156.198 21.7301C157.311 20.8747 158.363 20.3659 159.351 20.2039C160.359 20.0476 161.37 20.1221 162.385 20.4275C163.496 20.7617 164.298 21.3581 164.792 22.2167C165.31 23.0619 165.452 24.0132 165.218 25.0704C166.433 24.0158 167.585 23.3807 168.673 23.1651C169.767 22.9304 170.87 22.9801 171.981 23.3143C173.149 23.6658 173.981 24.3024 174.476 25.2242C174.991 26.1518 175.078 27.1806 174.738 28.3105C174.559 28.9043 174.288 29.4596 173.924 29.9765L170.468 35.1087Z" fill="url(#paint19_linear_217304_862)"/>
<path d="M183.533 29.1364C184.33 29.51 184.811 30.133 184.976 31.0057C185.168 31.8687 185.005 32.8525 184.487 33.9572C184.037 34.917 183.381 35.8685 182.519 36.8119C180.805 38.7252 178.743 40.3207 176.333 41.5985C173.94 42.8847 171.504 43.6755 169.025 43.9709C166.563 44.2747 164.381 43.981 162.48 43.0896C161.538 42.6482 160.8 42.1032 160.264 41.4546C159.747 40.8146 159.444 40.1423 159.354 39.4377C159.247 38.7246 159.337 38.0603 159.626 37.4446C159.753 37.1729 159.939 36.8953 160.182 36.6118C160.583 36.1812 161.037 35.9192 161.545 35.8258C162.052 35.7325 162.569 35.8089 163.094 36.055C163.927 36.4455 164.474 37.0446 164.736 37.8521C165.008 38.6863 164.983 39.6353 164.661 40.6992C165.845 41.1882 167.147 41.1911 168.566 40.7078C167.719 40.1119 167.175 39.4815 166.935 38.8165C166.721 38.1419 166.762 37.2775 167.057 36.2232L169.09 29.0588C169.197 28.6893 169.226 28.4157 169.177 28.238C169.154 28.0507 169.062 27.9188 168.899 27.8424C168.772 27.783 168.588 27.7742 168.348 27.8161C168.125 27.8664 167.978 27.8746 167.905 27.8407C167.761 27.7728 167.76 27.5849 167.905 27.277C168.023 27.0235 168.196 26.7731 168.422 26.5258C169.232 25.6464 170.246 25.0615 171.465 24.7713C172.692 24.4629 173.894 24.5846 175.071 25.1364C176.23 25.6797 176.92 26.4227 177.14 27.3655C177.379 28.3168 177.245 29.546 176.737 31.053L174.75 37.411C174.593 37.8892 174.649 38.1919 174.921 38.3193C175.247 38.4721 175.763 38.3606 176.469 37.9849C177.184 37.591 178.004 36.9484 178.93 36.0571C178.616 35.3135 178.463 34.5569 178.47 33.7873C178.478 33.0176 178.651 32.2706 178.991 31.5463C179.254 30.9849 179.564 30.5118 179.921 30.127C180.478 29.5045 181.068 29.1183 181.69 28.9683C182.339 28.8087 182.954 28.8648 183.533 29.1364Z" fill="url(#paint20_linear_217304_862)"/>
<path d="M200.5 32.5917C202.284 33.7725 203.437 34.9306 203.957 36.0659C204.504 37.1955 204.519 38.1524 204 38.9363C203.581 39.5702 202.988 39.8856 202.223 39.8828C201.485 39.8743 200.691 39.5886 199.84 39.0258C199.056 38.5072 198.574 37.9126 198.394 37.242C198.214 36.5715 198.312 35.9526 198.687 35.3855C198.919 35.0352 199.27 34.74 199.741 34.4998C199.241 34.1688 198.741 34.018 198.242 34.0475C197.754 34.0603 197.225 34.2979 196.655 34.7603C196.312 35.061 196.036 35.3699 195.826 35.6868C195.561 36.0871 195.418 36.4482 195.397 36.77C195.404 37.0861 195.541 37.3325 195.808 37.5091L197.284 38.4857C198.151 39.0595 198.408 39.6133 198.055 40.1471C198.011 40.2138 197.928 40.3028 197.806 40.4142C197.464 40.715 197.073 40.8522 196.635 40.826C196.213 40.8109 195.694 40.5992 195.076 40.1909L194.326 39.6943L186.486 46.162C186.303 46.329 186.162 46.4876 186.063 46.6377C185.92 46.8546 185.845 47.0573 185.841 47.2459C185.847 47.4178 185.886 47.6119 185.959 47.8279C185.999 48.0219 186.016 48.1772 186.011 48.2937C186.017 48.3935 185.964 48.4908 185.854 48.5855C185.627 48.7471 185.355 48.7952 185.039 48.7298C184.722 48.6643 184.306 48.4606 183.788 48.1185L178.084 44.3444C177.65 44.0575 177.377 43.7811 177.266 43.5152C177.165 43.2327 177.225 42.9967 177.446 42.8073C177.645 42.6513 177.936 42.592 178.319 42.6295C178.658 42.6616 178.971 42.6411 179.259 42.568C179.547 42.4948 179.882 42.2967 180.264 41.9737L186.453 36.8597C186.702 36.6647 186.915 36.4337 187.091 36.1669C187.312 35.8333 187.408 35.5251 187.379 35.2423C187.378 34.9538 187.313 34.599 187.184 34.1779C187.1 33.9064 187.041 33.6875 187.007 33.5212C187.001 33.3493 187.047 33.1882 187.147 33.0381C187.34 32.7102 187.597 32.5567 187.919 32.5778C188.257 32.6099 188.769 32.8521 189.453 33.3046L190.078 33.7184C190.237 33.2242 190.455 32.7685 190.731 32.3515C191.006 31.9345 191.368 31.5505 191.816 31.1995C192.696 30.5585 193.846 30.2882 195.267 30.3886C196.704 30.5 198.448 31.2344 200.5 32.5917Z" fill="url(#paint21_linear_217304_862)"/>
<path d="M206.076 45.5984C208.102 47.4135 209.224 49.1578 209.444 50.8312C209.678 52.5179 209.201 54.0242 208.013 55.3499C207.613 55.7967 207.106 56.2423 206.493 56.6867C205.116 57.6545 203.626 58.2532 202.024 58.4827C200.435 58.6973 198.848 58.5507 197.262 58.0428C195.705 57.5334 194.27 56.6914 192.96 55.517C190.889 53.6618 189.722 51.8775 189.458 50.1641C189.222 48.4491 189.718 46.9064 190.946 45.536C191.36 45.0742 191.88 44.6137 192.506 44.1545C193.83 43.2462 195.287 42.6989 196.878 42.5125C198.496 42.3246 200.099 42.4987 201.686 43.0348C203.302 43.5694 204.765 44.4239 206.076 45.5984ZM204.227 47.5269C203.914 47.2466 203.326 47.2293 202.461 47.475C201.625 47.7192 200.274 48.4023 198.409 49.5243C196.545 50.6464 195.332 51.5202 194.772 52.1458C194.478 52.4735 194.33 52.7437 194.327 52.9563C194.338 53.1539 194.433 53.3329 194.612 53.493C194.898 53.8031 195.458 53.8219 196.293 53.5495C197.143 53.2905 198.555 52.5686 200.53 51.3838C202.286 50.3527 203.458 49.5095 204.045 48.8541C204.325 48.5413 204.467 48.2786 204.469 48.066C204.487 47.8667 204.406 47.687 204.227 47.5269Z" fill="url(#paint22_linear_217304_862)"/>
<path d="M217.429 57.7449C219.169 59.8357 220.025 61.7248 219.998 63.4123C219.984 65.1152 219.293 66.5359 217.925 67.6745C217.464 68.0583 216.898 68.4254 216.227 68.7758C214.723 69.5328 213.162 69.9082 211.544 69.902C209.941 69.883 208.392 69.5068 206.897 68.7734C205.43 68.0426 204.134 67.0008 203.008 65.648C201.229 63.5112 200.334 61.5759 200.323 59.8423C200.339 58.1113 201.055 56.6572 202.469 55.4802C202.946 55.0836 203.527 54.7038 204.214 54.3406C205.656 53.6348 207.177 53.3055 208.778 53.3526C210.406 53.4024 211.967 53.808 213.459 54.5695C214.98 55.3336 216.303 56.3921 217.429 57.7449ZM215.319 59.3837C215.05 59.0608 214.47 58.958 213.579 59.0752C212.716 59.195 211.28 59.6742 209.272 60.5128C207.264 61.3514 205.937 62.0393 205.291 62.5766C204.953 62.8581 204.767 63.1038 204.734 63.3138C204.716 63.5109 204.784 63.7018 204.937 63.8862C205.175 64.2347 205.727 64.3349 206.592 64.1869C207.471 64.0544 208.973 63.5458 211.099 62.6612C212.987 61.8968 214.269 61.2331 214.945 60.6702C215.268 60.4015 215.446 60.1622 215.48 59.9523C215.526 59.7577 215.472 59.5682 215.319 59.3837Z" fill="url(#paint23_linear_217304_862)"/>
<path d="M219.728 81.8491C219.571 81.8983 219.467 81.9385 219.415 81.9698C219.296 82.0427 219.223 82.1341 219.196 82.2441C219.17 82.3541 219.188 82.4603 219.25 82.5627C219.375 82.7676 219.565 82.8862 219.819 82.9186C220.1 82.9576 220.257 83.0027 220.288 83.054C220.34 83.1393 220.322 83.2441 220.234 83.3682C220.145 83.4924 220.025 83.6013 219.871 83.6951C219.42 83.9935 218.841 84.1007 218.134 84.0169C217.437 83.9501 216.748 83.7032 216.065 83.2761C215.383 82.8491 214.823 82.277 214.386 81.56C213.865 80.7064 213.574 79.8648 213.512 79.0352C213.451 78.2056 213.612 77.5098 213.996 76.9478C213.117 76.8515 212.35 76.5932 211.695 76.1728C211.04 75.7524 210.51 75.2093 210.103 74.5435C209.624 73.7582 209.372 72.9043 209.348 71.9818C209.335 71.0763 209.561 70.2 210.028 69.3526C210.523 68.512 211.231 67.8103 212.153 67.2477C213.706 66.2996 215.343 65.699 217.063 65.446C218.811 65.1996 220.426 65.3503 221.908 65.8983C223.408 66.4358 224.569 67.3789 225.392 68.7276C225.84 69.4616 226.135 70.1369 226.277 70.7532C226.429 71.3866 226.465 72.0209 226.384 72.6561L229.783 71.7764C229.968 71.7338 230.112 71.6813 230.214 71.6188C230.402 71.5042 230.524 71.3592 230.581 71.1838C230.649 71.0255 230.695 70.8331 230.721 70.6065C230.753 70.3525 230.795 70.1515 230.845 70.0036C230.906 69.8728 231.037 69.7809 231.239 69.728C231.694 69.5908 232.364 69.9201 233.248 70.7161C234.132 71.5121 234.897 72.4393 235.543 73.4978C236.148 74.4879 236.403 75.3281 236.308 76.0183C236.224 76.7255 235.858 77.2771 235.209 77.673C234.834 77.9022 234.43 78.0664 233.999 78.1657L219.728 81.8491ZM224.314 73.181C224.387 72.762 224.324 72.3903 224.126 72.066C223.824 71.5709 223.16 71.3083 222.134 71.2783C221.108 71.2483 219.986 71.406 218.767 71.7513C217.549 72.0967 216.527 72.5331 215.7 73.0607C214.761 73.6337 214.48 74.2275 214.855 74.8421C214.99 75.0641 215.19 75.1998 215.454 75.2492C215.736 75.2883 216.123 75.251 216.616 75.1376L224.314 73.181Z" fill="url(#paint24_linear_217304_862)"/>
<path d="M229.352 102.536C229.555 103.31 229.463 104.026 229.077 104.685C228.696 105.364 228.129 105.802 227.374 105.999C226.852 106.136 226.301 106.124 225.722 105.966C225.148 105.826 224.631 105.548 224.17 105.131C223.734 104.728 223.435 104.217 223.273 103.598C223.076 102.843 223.17 102.137 223.556 101.478C223.942 100.819 224.51 100.381 225.259 100.164C225.782 100.027 226.33 100.029 226.904 100.168C227.478 100.308 227.983 100.579 228.419 100.982C228.879 101.399 229.191 101.917 229.352 102.536Z" fill="url(#paint25_linear_217304_862)"/>
<path d="M248.696 138.19C248.653 139.349 248.402 140.19 247.943 140.714C247.483 141.257 246.873 141.515 246.114 141.488C245.674 141.471 245.247 141.386 244.832 141.231L229.714 135.965C229.477 135.896 229.268 135.859 229.088 135.852C228.828 135.842 228.617 135.885 228.453 135.979C228.309 136.074 228.164 136.208 228.018 136.383C227.873 136.518 227.749 136.614 227.647 136.67C227.565 136.727 227.455 136.733 227.316 136.688C227.06 136.578 226.878 136.372 226.769 136.067C226.66 135.763 226.617 135.301 226.639 134.682L226.889 127.846C226.908 127.327 227.002 126.95 227.17 126.716C227.359 126.483 227.592 126.411 227.869 126.501C228.106 126.59 228.308 126.807 228.475 127.154C228.624 127.459 228.805 127.716 229.018 127.924C229.23 128.132 229.574 128.315 230.048 128.472L244.842 133.576C245.019 133.642 245.168 133.678 245.288 133.682C245.508 133.69 245.69 133.637 245.834 133.522C245.978 133.427 246.123 133.292 246.269 133.118C246.437 132.924 246.582 132.779 246.706 132.683C246.828 132.608 246.989 132.604 247.186 132.671C247.642 132.808 248.018 133.452 248.316 134.603C248.615 135.755 248.741 136.95 248.696 138.19Z" fill="url(#paint26_linear_217304_862)"/>
<path d="M240.428 151.647C239.934 154.322 239.03 156.188 237.716 157.247C236.398 158.326 234.864 158.704 233.113 158.38C232.523 158.271 231.879 158.071 231.18 157.779C229.637 157.108 228.35 156.148 227.319 154.9C226.308 153.656 225.607 152.224 225.214 150.606C224.837 149.011 224.809 147.348 225.129 145.618C225.634 142.884 226.549 140.958 227.874 139.84C229.215 138.745 230.79 138.365 232.6 138.7C233.209 138.812 233.873 139.016 234.592 139.312C236.057 139.969 237.283 140.927 238.27 142.188C239.274 143.471 239.96 144.93 240.33 146.564C240.715 148.222 240.748 149.916 240.428 151.647ZM237.819 151.073C237.895 150.66 237.603 150.149 236.943 149.539C236.299 148.952 235.012 148.155 233.083 147.148C231.154 146.141 229.776 145.561 228.95 145.408C228.518 145.328 228.21 145.343 228.027 145.451C227.864 145.564 227.761 145.738 227.717 145.974C227.601 146.379 227.877 146.868 228.545 147.438C229.209 148.029 230.56 148.858 232.6 149.926C234.395 150.888 235.726 151.449 236.591 151.609C237.004 151.686 237.302 151.669 237.485 151.561C237.664 151.472 237.775 151.309 237.819 151.073Z" fill="url(#paint27_linear_217304_862)"/>
<path d="M236.255 166.841C235.512 169.018 234.511 170.62 233.252 171.649C232.011 172.684 230.567 172.92 228.921 172.358C228.296 172.145 227.625 171.789 226.907 171.291L223.386 168.79C223.317 168.745 223.226 168.704 223.112 168.665C222.809 168.562 222.616 168.633 222.532 168.879C222.454 169.106 222.484 169.328 222.622 169.544C222.772 169.785 222.837 169.934 222.818 169.991C222.786 170.086 222.694 170.139 222.542 170.15C222.384 170.181 222.219 170.167 222.049 170.109C221.531 169.954 221.079 169.577 220.691 168.98C220.296 168.402 220.045 167.714 219.937 166.916C219.828 166.118 219.913 165.313 220.191 164.499C220.527 163.514 220.994 162.733 221.592 162.156C222.191 161.578 222.886 161.276 223.676 161.25C223.189 160.45 222.888 159.597 222.774 158.692C222.679 157.793 222.784 156.899 223.087 156.009C223.429 155.006 223.906 154.228 224.517 153.676C225.147 153.13 225.823 152.79 226.545 152.656C227.279 152.547 227.987 152.609 228.669 152.842C228.972 152.945 229.255 153.073 229.52 153.227C230.723 153.976 231.484 154.964 231.804 156.194C232.118 157.442 232.036 158.766 231.558 160.167C231.022 161.738 230.25 163.197 229.241 164.543L230.873 165.892C231.584 166.41 232.157 166.743 232.593 166.891C233.053 167.027 233.446 166.992 233.77 166.785C234.094 166.579 234.356 166.182 234.556 165.596C234.214 165.606 233.883 165.556 233.561 165.446C232.861 165.207 232.345 164.736 232.015 164.031C231.685 163.327 231.687 162.483 232.023 161.498C232.34 160.571 232.787 159.91 233.365 159.516C233.956 159.147 234.554 159.065 235.16 159.272C236.107 159.595 236.711 160.393 236.974 161.666C237.237 162.939 236.998 164.664 236.255 166.841ZM228.194 162.316C228.375 161.786 228.315 161.279 228.015 160.797C227.727 160.339 227.347 160.03 226.874 159.868C226.571 159.765 226.302 159.747 226.068 159.815C225.827 159.902 225.661 160.078 225.571 160.343C225.487 160.589 225.491 160.886 225.583 161.235C225.688 161.609 225.917 161.93 226.269 162.198L227.741 163.366C227.908 163.063 228.059 162.713 228.194 162.316Z" fill="url(#paint28_linear_217304_862)"/>
<path d="M216.597 182.185C216.473 182.076 216.384 182.008 216.331 181.981C216.206 181.917 216.09 181.902 215.982 181.936C215.875 181.971 215.793 182.042 215.739 182.148C215.629 182.362 215.626 182.585 215.731 182.819C215.844 183.08 215.887 183.237 215.86 183.29C215.814 183.379 215.715 183.418 215.563 183.408C215.411 183.397 215.255 183.351 215.095 183.268C214.606 183.039 214.213 182.601 213.916 181.953C213.61 181.324 213.462 180.607 213.471 179.802C213.48 178.997 213.676 178.221 214.06 177.474C214.518 176.584 215.084 175.898 215.761 175.413C216.437 174.929 217.115 174.704 217.794 174.738C217.419 173.938 217.24 173.149 217.257 172.371C217.275 171.593 217.462 170.857 217.819 170.163C218.239 169.345 218.837 168.686 219.612 168.184C220.378 167.701 221.244 167.438 222.211 167.395C223.186 167.379 224.154 167.618 225.114 168.112C226.733 168.944 228.098 170.028 229.21 171.365C230.331 172.728 231.043 174.185 231.348 175.736C231.67 177.296 231.47 178.779 230.748 180.184C230.354 180.949 229.932 181.552 229.48 181.994C229.018 182.454 228.495 182.815 227.911 183.077L230.433 185.52C230.565 185.656 230.685 185.751 230.792 185.806C230.987 185.907 231.175 185.936 231.354 185.893C231.525 185.868 231.713 185.808 231.92 185.712C232.154 185.607 232.347 185.537 232.499 185.503C232.642 185.487 232.789 185.551 232.94 185.696C233.294 186.013 233.362 186.756 233.143 187.926C232.924 189.095 232.531 190.231 231.964 191.334C231.434 192.365 230.849 193.021 230.211 193.3C229.564 193.597 228.902 193.571 228.226 193.224C227.835 193.023 227.484 192.764 227.175 192.447L216.597 182.185ZM226.385 181.584C226.78 181.427 227.065 181.18 227.238 180.842C227.504 180.326 227.382 179.623 226.873 178.731C226.364 177.84 225.645 176.964 224.716 176.104C223.786 175.244 222.881 174.599 222 174.168C221.022 173.666 220.368 173.734 220.039 174.375C219.92 174.606 219.908 174.847 220.004 175.099C220.117 175.359 220.351 175.671 220.705 176.032L226.385 181.584Z" fill="url(#paint29_linear_217304_862)"/>
<path d="M219.697 197.839C219.022 198.783 218.348 199.346 217.676 199.529C217.004 199.712 216.359 199.583 215.741 199.14C215.367 198.873 215.05 198.56 214.79 198.202L209.1 190.738C208.94 190.549 208.787 190.403 208.64 190.298C208.429 190.147 208.229 190.065 208.041 190.053C207.869 190.053 207.673 190.086 207.455 190.15C207.259 190.183 207.104 190.194 206.987 190.185C206.887 190.187 206.792 190.131 206.702 190.017C206.548 189.785 206.51 189.512 206.587 189.198C206.664 188.884 206.883 188.475 207.244 187.971L211.224 182.408C211.526 181.985 211.812 181.722 212.082 181.62C212.368 181.53 212.602 181.599 212.783 181.827C212.932 182.031 212.98 182.324 212.929 182.705C212.884 183.043 212.893 183.356 212.956 183.647C213.018 183.938 213.204 184.28 213.513 184.673L219.046 191.84C219.157 191.994 219.262 192.105 219.359 192.175C219.538 192.303 219.706 192.362 219.861 192.35C220.033 192.35 220.235 192.31 220.465 192.228C220.711 192.159 220.907 192.126 221.051 192.131C221.195 192.136 221.331 192.221 221.459 192.386C221.763 192.751 221.722 193.496 221.335 194.621C220.964 195.758 220.418 196.831 219.697 197.839ZM223.919 203.332C223.465 203.966 222.876 204.343 222.15 204.464C221.441 204.596 220.786 204.446 220.184 204.016C219.761 203.713 219.428 203.303 219.184 202.784C218.928 202.282 218.816 201.734 218.847 201.141C218.882 200.576 219.074 200.05 219.423 199.562C219.866 198.944 220.441 198.569 221.151 198.437C221.864 198.332 222.536 198.493 223.166 198.919C223.573 199.21 223.895 199.601 224.135 200.092C224.39 200.594 224.508 201.134 224.489 201.71C224.47 202.287 224.28 202.827 223.919 203.332Z" fill="url(#paint30_linear_217304_862)"/>
<path d="M196.867 205.758C196.838 205.674 196.765 205.576 196.65 205.465C196.549 205.368 196.449 205.313 196.35 205.301C196.237 205.303 196.139 205.347 196.055 205.434C195.889 205.607 195.822 205.82 195.855 206.074C195.888 206.356 195.884 206.519 195.843 206.562C195.773 206.634 195.667 206.643 195.525 206.589C195.397 206.549 195.268 206.467 195.138 206.342C194.707 205.953 194.428 205.421 194.303 204.744C194.192 204.082 194.277 203.345 194.56 202.533C194.842 201.75 195.358 200.97 196.108 200.192C197.024 199.242 197.969 198.694 198.942 198.549C199.93 198.418 200.798 198.699 201.546 199.393C202.079 199.906 202.552 200.612 202.964 201.51L204.929 205.696C205.046 205.948 205.163 206.13 205.278 206.241C205.465 206.422 205.672 206.496 205.897 206.463C206.124 206.459 206.32 206.371 206.487 206.198C206.792 205.881 206.932 205.433 206.908 204.854C206.897 204.288 206.739 203.732 206.432 203.186L203.317 197.599C203.214 197.389 203.091 197.215 202.947 197.076C202.774 196.909 202.595 196.806 202.411 196.767C202.24 196.742 202.035 196.739 201.795 196.757C201.612 196.775 201.463 196.77 201.349 196.744C201.236 196.718 201.142 196.642 201.069 196.516C200.938 196.278 200.933 196.009 201.055 195.71C201.176 195.411 201.459 195.031 201.904 194.57L206.651 189.646C207.012 189.272 207.326 189.061 207.594 189.013C207.89 188.966 208.119 189.06 208.278 189.298C208.396 189.522 208.401 189.819 208.295 190.189C208.202 190.516 208.165 190.828 208.185 191.124C208.204 191.421 208.338 191.786 208.586 192.22L212.975 200.16C213.019 200.258 213.106 200.37 213.236 200.495C213.394 200.647 213.551 200.729 213.707 200.741C213.849 200.766 214.054 200.77 214.322 200.751C214.576 200.718 214.774 200.714 214.916 200.74C215.058 200.765 215.18 200.869 215.283 201.051C215.53 201.457 215.381 202.188 214.835 203.245C214.303 204.315 213.606 205.297 212.745 206.19C212.051 206.91 211.302 207.284 210.496 207.313C209.705 207.356 208.977 207.015 208.313 206.292C208.593 207.701 208.573 208.89 208.251 209.857C207.944 210.839 207.415 211.719 206.665 212.496C205.819 213.374 204.872 213.823 203.826 213.842C202.766 213.876 201.811 213.483 200.961 212.664C200.515 212.234 200.145 211.738 199.852 211.178L196.867 205.758Z" fill="url(#paint31_linear_217304_862)"/>
<path d="M194.503 228.517C193.996 228.908 193.42 229.176 192.774 229.321C192.124 229.494 191.502 229.507 190.908 229.359C190.31 229.24 189.847 228.966 189.517 228.539C188.795 227.605 189.068 226.649 190.334 225.671C190.698 225.39 191.002 225.194 191.244 225.082C191.483 224.999 191.786 224.917 192.153 224.836C192.115 224.688 192.016 224.511 191.857 224.306C191.662 224.052 191.39 223.782 191.042 223.495C190.678 223.22 190.317 222.981 189.958 222.778C189.246 222.544 188.628 222.087 188.102 221.406C187.87 221.105 187.628 220.711 187.378 220.222C186.932 219.252 186.771 218.176 186.894 216.995C187.002 215.825 187.409 214.651 188.117 213.473C188.821 212.323 189.774 211.284 190.977 210.355C191.895 209.646 192.807 209.043 193.712 208.546C193.791 208.157 193.714 207.812 193.482 207.511C193.323 207.305 193.093 207.205 192.793 207.209C192.506 207.229 192.14 207.41 191.697 207.752L188.135 210.503C186.916 211.444 185.801 211.963 184.791 212.062C183.792 212.176 182.993 211.845 182.395 211.069C182.175 210.784 181.996 210.455 181.859 210.081C181.572 209.317 181.567 208.411 181.844 207.363C182.094 206.311 182.699 205.148 183.662 203.875C184.624 202.601 185.976 201.292 187.717 199.947C189.268 198.749 190.686 197.87 191.97 197.307C193.254 196.745 194.341 196.5 195.23 196.572C196.123 196.615 196.789 196.922 197.229 197.492C197.327 197.618 197.442 197.833 197.574 198.135C197.786 198.704 197.749 199.326 197.463 200.003C197.204 200.682 196.542 201.51 195.475 202.485C196.136 202.555 196.662 202.844 197.054 203.351C197.188 203.525 197.305 203.725 197.404 203.952C197.786 204.971 197.513 206.154 196.584 207.504C198.272 207.236 199.599 207.727 200.565 208.978C200.834 209.326 201.068 209.727 201.266 210.18C201.712 211.15 201.867 212.218 201.731 213.384C201.608 214.566 201.192 215.746 200.485 216.924C199.777 218.102 198.822 219.155 197.619 220.084C195.735 221.539 194.065 222.436 192.61 222.777C193.129 222.958 193.618 223.199 194.078 223.5C194.535 223.83 194.898 224.169 195.167 224.517C195.631 225.119 195.838 225.78 195.789 226.501C195.723 227.234 195.294 227.906 194.503 228.517ZM193.146 216.109C193.516 217.112 193.867 217.827 194.197 218.254C194.612 218.792 195.05 218.884 195.509 218.53C195.904 218.224 196.1 217.757 196.095 217.129C196.087 216.53 195.848 215.615 195.378 214.385C194.996 213.367 194.64 212.643 194.31 212.216C193.906 211.694 193.483 211.604 193.04 211.946C192.644 212.251 192.449 212.718 192.454 213.346C192.458 213.974 192.689 214.895 193.146 216.109ZM191.436 204.126C191.879 203.783 192.301 203.495 192.702 203.262C192.709 202.878 192.559 202.488 192.253 202.092C191.932 201.708 191.554 201.546 191.119 201.604C190.667 201.674 190.117 201.96 189.468 202.461C188.677 203.072 188.127 203.686 187.82 204.302C187.497 204.931 187.506 205.467 187.849 205.91C187.995 206.1 188.183 206.195 188.411 206.196C188.639 206.197 188.887 206.094 189.156 205.886L191.436 204.126Z" fill="url(#paint32_linear_217304_862)"/>
<path d="M180.036 219.785C179.338 220.176 178.622 220.269 177.887 220.062C177.134 219.865 176.567 219.427 176.185 218.747C175.921 218.276 175.792 217.74 175.799 217.14C175.789 216.549 175.927 215.979 176.214 215.428C176.494 214.904 176.913 214.485 177.471 214.172C178.151 213.79 178.859 213.703 179.594 213.91C180.329 214.116 180.896 214.555 181.295 215.225C181.56 215.696 181.697 216.227 181.707 216.817C181.718 217.408 181.583 217.965 181.304 218.489C181.017 219.04 180.594 219.472 180.036 219.785Z" fill="url(#paint33_linear_217304_862)"/>
<path d="M166.304 226.284C165.557 226.57 164.835 226.557 164.138 226.245C163.422 225.941 162.924 225.425 162.646 224.696C162.453 224.192 162.403 223.643 162.498 223.05C162.574 222.464 162.794 221.92 163.158 221.417C163.511 220.939 163.986 220.586 164.584 220.357C165.312 220.079 166.025 220.095 166.722 220.407C167.42 220.718 167.917 221.235 168.214 221.956C168.407 222.46 168.466 223.005 168.39 223.591C168.314 224.177 168.1 224.708 167.747 225.186C167.383 225.689 166.902 226.055 166.304 226.284Z" fill="url(#paint34_linear_217304_862)"/>
<path d="M151.773 230.714C150.992 230.888 150.279 230.77 149.635 230.36C148.971 229.955 148.554 229.372 148.384 228.611C148.267 228.083 148.298 227.533 148.478 226.961C148.638 226.392 148.935 225.886 149.369 225.441C149.787 225.02 150.309 224.739 150.933 224.6C151.695 224.431 152.398 224.551 153.042 224.96C153.687 225.37 154.103 225.953 154.293 226.71C154.41 227.238 154.389 227.785 154.228 228.354C154.068 228.922 153.779 229.417 153.36 229.838C152.927 230.283 152.397 230.575 151.773 230.714Z" fill="url(#paint35_linear_217304_862)"/>
<path d="M136.751 232.981C135.953 233.04 135.265 232.819 134.687 232.32C134.089 231.823 133.762 231.185 133.705 230.407C133.666 229.868 133.776 229.329 134.038 228.788C134.279 228.249 134.647 227.791 135.14 227.414C135.616 227.058 136.172 226.857 136.811 226.811C137.589 226.754 138.267 226.975 138.845 227.474C139.423 227.973 139.75 228.611 139.827 229.387C139.866 229.926 139.765 230.465 139.524 231.004C139.283 231.543 138.924 231.99 138.449 232.346C137.955 232.723 137.389 232.935 136.751 232.981Z" fill="url(#paint36_linear_217304_862)"/>
<defs>
<linearGradient id="paint0_linear_217304_862" x1="121.378" y1="245.066" x2="118.522" y2="214.377" gradientUnits="userSpaceOnUse">
<stop offset="0.0690715" stop-color="#9356DC"/>
<stop offset="0.45" stop-color="#E083E0"/>
<stop offset="0.79" stop-color="#99E2D0"/>
</linearGradient>
<linearGradient id="paint1_linear_217304_862" x1="104.696" y1="242.778" x2="106.801" y2="211.955" gradientUnits="userSpaceOnUse">
<stop offset="0.0690715" stop-color="#9356DC"/>
<stop offset="0.45" stop-color="#E083E0"/>
<stop offset="0.79" stop-color="#99E2D0"/>
</linearGradient>
<linearGradient id="paint2_linear_217304_862" x1="88.9246" y1="238.255" x2="96.9466" y2="208.228" gradientUnits="userSpaceOnUse">
<stop offset="0.0690715" stop-color="#9356DC"/>
<stop offset="0.45" stop-color="#E083E0"/>
<stop offset="0.79" stop-color="#99E2D0"/>
</linearGradient>
<linearGradient id="paint3_linear_217304_862" x1="72.4259" y1="230.703" x2="82.6025" y2="201.658" gradientUnits="userSpaceOnUse">
<stop offset="0.0690715" stop-color="#9356DC"/>
<stop offset="0.45" stop-color="#E083E0"/>
<stop offset="0.79" stop-color="#99E2D0"/>
</linearGradient>
<linearGradient id="paint4_linear_217304_862" x1="57.9948" y1="221.219" x2="69.9325" y2="193.41" gradientUnits="userSpaceOnUse">
<stop offset="0.0690715" stop-color="#9356DC"/>
<stop offset="0.45" stop-color="#E083E0"/>
<stop offset="0.79" stop-color="#99E2D0"/>
</linearGradient>
<linearGradient id="paint5_linear_217304_862" x1="45.9643" y1="210.566" x2="64.3165" y2="185.804" gradientUnits="userSpaceOnUse">
<stop offset="0.0690715" stop-color="#9356DC"/>
<stop offset="0.45" stop-color="#E083E0"/>
<stop offset="0.79" stop-color="#99E2D0"/>
</linearGradient>
<linearGradient id="paint6_linear_217304_862" x1="35.0038" y1="197.642" x2="56.7658" y2="175.816" gradientUnits="userSpaceOnUse">
<stop offset="0.0690715" stop-color="#9356DC"/>
<stop offset="0.45" stop-color="#E083E0"/>
<stop offset="0.79" stop-color="#99E2D0"/>
</linearGradient>
<linearGradient id="paint7_linear_217304_862" x1="26.0418" y1="183.26" x2="50.7498" y2="164.835" gradientUnits="userSpaceOnUse">
<stop offset="0.0690715" stop-color="#9356DC"/>
<stop offset="0.45" stop-color="#E083E0"/>
<stop offset="0.79" stop-color="#99E2D0"/>
</linearGradient>
<linearGradient id="paint8_linear_217304_862" x1="14.6319" y1="150.296" x2="39.7722" y2="135.268" gradientUnits="userSpaceOnUse">
<stop offset="0.0690715" stop-color="#9356DC"/>
<stop offset="0.45" stop-color="#E083E0"/>
<stop offset="0.79" stop-color="#99E2D0"/>
</linearGradient>
<linearGradient id="paint9_linear_217304_862" x1="13.3895" y1="116.626" x2="42.771" y2="111.102" gradientUnits="userSpaceOnUse">
<stop offset="0.0690715" stop-color="#9356DC"/>
<stop offset="0.45" stop-color="#E083E0"/>
<stop offset="0.79" stop-color="#99E2D0"/>
</linearGradient>
<linearGradient id="paint10_linear_217304_862" x1="16.2043" y1="100.915" x2="46.9015" y2="103.681" gradientUnits="userSpaceOnUse">
<stop offset="0.0690715" stop-color="#9356DC"/>
<stop offset="0.45" stop-color="#E083E0"/>
<stop offset="0.79" stop-color="#99E2D0"/>
</linearGradient>
<linearGradient id="paint11_linear_217304_862" x1="21.5261" y1="84.8262" x2="51.4935" y2="92.032" gradientUnits="userSpaceOnUse">
<stop offset="0.0690715" stop-color="#9356DC"/>
<stop offset="0.45" stop-color="#E083E0"/>
<stop offset="0.79" stop-color="#99E2D0"/>
</linearGradient>
<linearGradient id="paint12_linear_217304_862" x1="29.134" y1="69.6842" x2="57.7329" y2="81.1764" gradientUnits="userSpaceOnUse">
<stop offset="0.0690715" stop-color="#9356DC"/>
<stop offset="0.45" stop-color="#E083E0"/>
<stop offset="0.79" stop-color="#99E2D0"/>
</linearGradient>
<linearGradient id="paint13_linear_217304_862" x1="39.4962" y1="55.053" x2="67.0485" y2="66.6574" gradientUnits="userSpaceOnUse">
<stop offset="0.0690715" stop-color="#9356DC"/>
<stop offset="0.45" stop-color="#E083E0"/>
<stop offset="0.79" stop-color="#99E2D0"/>
</linearGradient>
<linearGradient id="paint14_linear_217304_862" x1="50.4322" y1="43.5749" x2="74.2758" y2="63.2209" gradientUnits="userSpaceOnUse">
<stop offset="0.0690715" stop-color="#9356DC"/>
<stop offset="0.45" stop-color="#E083E0"/>
<stop offset="0.79" stop-color="#99E2D0"/>
</linearGradient>
<linearGradient id="paint15_linear_217304_862" x1="63.8282" y1="33.0216" x2="84.845" y2="55.5663" gradientUnits="userSpaceOnUse">
<stop offset="0.0690715" stop-color="#9356DC"/>
<stop offset="0.45" stop-color="#E083E0"/>
<stop offset="0.79" stop-color="#99E2D0"/>
</linearGradient>
<linearGradient id="paint16_linear_217304_862" x1="95.3466" y1="18.0748" x2="113.034" y2="41.4206" gradientUnits="userSpaceOnUse">
<stop offset="0.0690715" stop-color="#9356DC"/>
<stop offset="0.45" stop-color="#E083E0"/>
<stop offset="0.79" stop-color="#99E2D0"/>
</linearGradient>
<linearGradient id="paint17_linear_217304_862" x1="127.692" y1="13.1575" x2="132.781" y2="43.556" gradientUnits="userSpaceOnUse">
<stop offset="0.0690715" stop-color="#9356DC"/>
<stop offset="0.45" stop-color="#E083E0"/>
<stop offset="0.79" stop-color="#99E2D0"/>
</linearGradient>
<linearGradient id="paint18_linear_217304_862" x1="144.497" y1="14.2213" x2="144.648" y2="45.1156" gradientUnits="userSpaceOnUse">
<stop offset="0.0690715" stop-color="#9356DC"/>
<stop offset="0.45" stop-color="#E083E0"/>
<stop offset="0.79" stop-color="#99E2D0"/>
</linearGradient>
<linearGradient id="paint19_linear_217304_862" x1="160.557" y1="17.5805" x2="154.748" y2="48.1136" gradientUnits="userSpaceOnUse">
<stop offset="0.0690715" stop-color="#9356DC"/>
<stop offset="0.45" stop-color="#E083E0"/>
<stop offset="0.79" stop-color="#99E2D0"/>
</linearGradient>
<linearGradient id="paint20_linear_217304_862" x1="177.563" y1="23.9085" x2="169.533" y2="53.6189" gradientUnits="userSpaceOnUse">
<stop offset="0.0690715" stop-color="#9356DC"/>
<stop offset="0.45" stop-color="#E083E0"/>
<stop offset="0.79" stop-color="#99E2D0"/>
</linearGradient>
<linearGradient id="paint21_linear_217304_862" x1="192.647" y1="32.3135" x2="182.771" y2="60.9196" gradientUnits="userSpaceOnUse">
<stop offset="0.0690715" stop-color="#9356DC"/>
<stop offset="0.45" stop-color="#E083E0"/>
<stop offset="0.79" stop-color="#99E2D0"/>
</linearGradient>
<linearGradient id="paint22_linear_217304_862" x1="205.423" y1="42.0604" x2="188.928" y2="68.0961" gradientUnits="userSpaceOnUse">
<stop offset="0.0690715" stop-color="#9356DC"/>
<stop offset="0.45" stop-color="#E083E0"/>
<stop offset="0.79" stop-color="#99E2D0"/>
</linearGradient>
<linearGradient id="paint23_linear_217304_862" x1="217.298" y1="54.1496" x2="197.187" y2="77.5061" gradientUnits="userSpaceOnUse">
<stop offset="0.0690715" stop-color="#9356DC"/>
<stop offset="0.45" stop-color="#E083E0"/>
<stop offset="0.79" stop-color="#99E2D0"/>
</linearGradient>
<linearGradient id="paint24_linear_217304_862" x1="227.286" y1="67.8392" x2="203.989" y2="88.0186" gradientUnits="userSpaceOnUse">
<stop offset="0.0690715" stop-color="#9356DC"/>
<stop offset="0.45" stop-color="#E083E0"/>
<stop offset="0.79" stop-color="#99E2D0"/>
</linearGradient>
<linearGradient id="paint25_linear_217304_862" x1="241.072" y1="99.8822" x2="217.096" y2="116.705" gradientUnits="userSpaceOnUse">
<stop offset="0.0690715" stop-color="#9356DC"/>
<stop offset="0.45" stop-color="#E083E0"/>
<stop offset="0.79" stop-color="#99E2D0"/>
</linearGradient>
<linearGradient id="paint26_linear_217304_862" x1="244.769" y1="133.372" x2="215.869" y2="141.026" gradientUnits="userSpaceOnUse">
<stop offset="0.0690715" stop-color="#9356DC"/>
<stop offset="0.45" stop-color="#E083E0"/>
<stop offset="0.79" stop-color="#99E2D0"/>
</linearGradient>
<linearGradient id="paint27_linear_217304_862" x1="243.108" y1="149.247" x2="212.291" y2="148.729" gradientUnits="userSpaceOnUse">
<stop offset="0.0690715" stop-color="#9356DC"/>
<stop offset="0.45" stop-color="#E083E0"/>
<stop offset="0.79" stop-color="#99E2D0"/>
</linearGradient>
<linearGradient id="paint28_linear_217304_862" x1="238.975" y1="165.681" x2="208.561" y2="160.681" gradientUnits="userSpaceOnUse">
<stop offset="0.0690715" stop-color="#9356DC"/>
<stop offset="0.45" stop-color="#E083E0"/>
<stop offset="0.79" stop-color="#99E2D0"/>
</linearGradient>
<linearGradient id="paint29_linear_217304_862" x1="232.493" y1="181.338" x2="203.131" y2="171.964" gradientUnits="userSpaceOnUse">
<stop offset="0.0690715" stop-color="#9356DC"/>
<stop offset="0.45" stop-color="#E083E0"/>
<stop offset="0.79" stop-color="#99E2D0"/>
</linearGradient>
<linearGradient id="paint30_linear_217304_862" x1="223.226" y1="196.686" x2="194.9" y2="187.124" gradientUnits="userSpaceOnUse">
<stop offset="0.0690715" stop-color="#9356DC"/>
<stop offset="0.45" stop-color="#E083E0"/>
<stop offset="0.79" stop-color="#99E2D0"/>
</linearGradient>
<linearGradient id="paint31_linear_217304_862" x1="213.157" y1="208.932" x2="187.943" y2="191.079" gradientUnits="userSpaceOnUse">
<stop offset="0.0690715" stop-color="#9356DC"/>
<stop offset="0.45" stop-color="#E083E0"/>
<stop offset="0.79" stop-color="#99E2D0"/>
</linearGradient>
<linearGradient id="paint32_linear_217304_862" x1="200.567" y1="220.435" x2="177.961" y2="199.485" gradientUnits="userSpaceOnUse">
<stop offset="0.0690715" stop-color="#9356DC"/>
<stop offset="0.45" stop-color="#E083E0"/>
<stop offset="0.79" stop-color="#99E2D0"/>
</linearGradient>
<linearGradient id="paint33_linear_217304_862" x1="185.567" y1="230.452" x2="163.227" y2="211.51" gradientUnits="userSpaceOnUse">
<stop offset="0.0690715" stop-color="#9356DC"/>
<stop offset="0.45" stop-color="#E083E0"/>
<stop offset="0.79" stop-color="#99E2D0"/>
</linearGradient>
<linearGradient id="paint34_linear_217304_862" x1="170.224" y1="237.643" x2="150.879" y2="215.65" gradientUnits="userSpaceOnUse">
<stop offset="0.0690715" stop-color="#9356DC"/>
<stop offset="0.45" stop-color="#E083E0"/>
<stop offset="0.79" stop-color="#99E2D0"/>
</linearGradient>
<linearGradient id="paint35_linear_217304_862" x1="153.997" y1="242.523" x2="138.06" y2="217.948" gradientUnits="userSpaceOnUse">
<stop offset="0.0690715" stop-color="#9356DC"/>
<stop offset="0.45" stop-color="#E083E0"/>
<stop offset="0.79" stop-color="#99E2D0"/>
</linearGradient>
<linearGradient id="paint36_linear_217304_862" x1="137.232" y1="244.988" x2="125.044" y2="218.355" gradientUnits="userSpaceOnUse">
<stop offset="0.0690715" stop-color="#9356DC"/>
<stop offset="0.45" stop-color="#E083E0"/>
<stop offset="0.79" stop-color="#99E2D0"/>
</linearGradient>
</defs>
</svg>
